{
	"asset":{
		"generator":"Khronos glTF Blender I/O v4.5.48",
		"version":"2.0"
	},
	"scene":0,
	"scenes":[
		{
			"name":"Scene",
			"nodes":[
				0,
				1,
				2,
				3,
				4,
				5,
				6,
				7,
				8,
				9,
				10,
				11,
				12,
				13,
				14,
				15,
				16,
				17,
				18,
				19,
				20,
				21,
				22
			]
		}
	],
	"nodes":[
		{
			"mesh":0,
			"name":"Track.L",
			"rotation":[
				0,
				0,
				-0.7071068286895752,
				0.7071068286895752
			],
			"scale":[
				0.10000000149011612,
				0.10000000149011612,
				1.4749338626861572
			],
			"translation":[
				-15.140722274780273,
				0.19833393394947052,
				-3.362043857574463
			]
		},
		{
			"name":"Track Path.L",
			"rotation":[
				0,
				0.7071068286895752,
				0,
				0.7071068286895752
			],
			"scale":[
				7.332492828369141,
				7.332492828369141,
				7.332492828369141
			],
			"translation":[
				-15.305241584777832,
				0,
				-0.5037841796875
			]
		},
		{
			"mesh":1,
			"name":"Platform",
			"scale":[
				9,
				1,
				1
			],
			"translation":[
				-1.0851573944091797,
				1.112149953842163,
				-0.641387939453125
			]
		},
		{
			"name":"Platform Path",
			"rotation":[
				0,
				0.7071068286895752,
				0,
				0.7071068286895752
			],
			"scale":[
				7.332492828369141,
				7.332492828369141,
				7.332492828369141
			],
			"translation":[
				-10.45512580871582,
				0,
				-0.5037841796875
			]
		},
		{
			"mesh":2,
			"name":"Column.R",
			"scale":[
				0.6499999761581421,
				5,
				0.5
			],
			"translation":[
				2.7518882751464844,
				7.102137565612793,
				-1.2116146087646484
			]
		},
		{
			"name":"Column Path.R",
			"rotation":[
				0,
				0.7071068286895752,
				0,
				0.7071068286895752
			],
			"scale":[
				7.332492828369141,
				7.332492828369141,
				7.332492828369141
			],
			"translation":[
				-10.45512580871582,
				0,
				-0.5037841796875
			]
		},
		{
			"mesh":3,
			"name":"Column.L",
			"scale":[
				0.6499999761581421,
				5,
				0.5
			],
			"translation":[
				-4.792238235473633,
				7.102137565612793,
				-24.793916702270508
			]
		},
		{
			"name":"Column Path.L",
			"rotation":[
				0,
				0.7071068286895752,
				0,
				0.7071068286895752
			],
			"scale":[
				7.332492828369141,
				7.332492828369141,
				7.332492828369141
			],
			"translation":[
				-10.45512580871582,
				0,
				-0.5037841796875
			]
		},
		{
			"name":"Ground Path.L",
			"rotation":[
				0,
				0.7071068286895752,
				0,
				0.7071068286895752
			],
			"scale":[
				7.332492828369141,
				7.332492828369141,
				7.332492828369141
			],
			"translation":[
				-9.816779136657715,
				0,
				-0.5037841796875
			]
		},
		{
			"mesh":4,
			"name":"Ground.L",
			"scale":[
				2.5,
				0.04838242009282112,
				1
			],
			"translation":[
				-12.477008819580078,
				0.05028205364942551,
				-0.641387939453125
			]
		},
		{
			"name":"Track Path.R",
			"rotation":[
				0,
				0.7071068286895752,
				0,
				0.7071068286895752
			],
			"scale":[
				7.332492828369141,
				7.332492828369141,
				7.332492828369141
			],
			"translation":[
				3.2386417388916016,
				0,
				-0.5037841796875
			]
		},
		{
			"mesh":5,
			"name":"Track.R",
			"rotation":[
				0,
				0,
				-0.7071068286895752,
				0.7071068286895752
			],
			"scale":[
				0.10000000149011612,
				0.10000000149011612,
				1.494933843612671
			],
			"translation":[
				7.8382415771484375,
				0.19833393394947052,
				-2.300440549850464
			]
		},
		{
			"name":"Ground Path.R",
			"rotation":[
				0,
				0.7071068286895752,
				0,
				0.7071068286895752
			],
			"scale":[
				7.332492828369141,
				7.332492828369141,
				7.332492828369141
			],
			"translation":[
				-9.816779136657715,
				0,
				-0.5037841796875
			]
		},
		{
			"mesh":6,
			"name":"Ground.R",
			"scale":[
				0.5,
				6,
				1.6200000047683716
			],
			"translation":[
				13.441326141357422,
				6.030233383178711,
				-1.0820866823196411
			]
		},
		{
			"mesh":7,
			"name":"Exit Sign",
			"rotation":[
				0,
				-0.017452405765652657,
				0,
				0.9998477697372437
			],
			"scale":[
				4.010324954986572,
				0.9993971586227417,
				0.22187934815883636
			],
			"translation":[
				0.49452972412109375,
				10.12423324584961,
				1.2180604934692383
			]
		},
		{
			"name":"Border Path.L",
			"rotation":[
				0,
				0.7071068286895752,
				0,
				0.7071068286895752
			],
			"scale":[
				7.332492828369141,
				7.332492828369141,
				7.332492828369141
			],
			"translation":[
				-10.45512580871582,
				0,
				-0.5037841796875
			]
		},
		{
			"mesh":8,
			"name":"Border.L",
			"scale":[
				0.5,
				1,
				1
			],
			"translation":[
				-15.468786239624023,
				1.112149953842163,
				-0.641387939453125
			]
		},
		{
			"mesh":9,
			"name":"Border.R",
			"scale":[
				2.5,
				0.04838242009282112,
				1
			],
			"translation":[
				10.416173934936523,
				0.05028205364942551,
				-0.641387939453125
			]
		},
		{
			"name":"Border Path.R",
			"rotation":[
				0,
				0.7071068286895752,
				0,
				0.7071068286895752
			],
			"scale":[
				7.332492828369141,
				7.332492828369141,
				7.332492828369141
			],
			"translation":[
				-9.816779136657715,
				0,
				-0.5037841796875
			]
		},
		{
			"mesh":10,
			"name":"14th Street Sign",
			"rotation":[
				0,
				-0.21046587824821472,
				0,
				0.9776012897491455
			],
			"scale":[
				0.6499999761581421,
				0.75,
				0.05000000074505806
			],
			"translation":[
				1.6848773956298828,
				8.342052459716797,
				19.37548828125
			]
		},
		{
			"mesh":11,
			"name":"Union Square Sign",
			"rotation":[
				0,
				-0.056154411286115646,
				0,
				0.9984220862388611
			],
			"scale":[
				0.6499999761581421,
				0.75,
				0.05000000074505806
			],
			"translation":[
				5.277568817138672,
				8.342052459716797,
				5.913305282592773
			]
		},
		{
			"mesh":12,
			"name":"Moving Platform Sign.01",
			"rotation":[
				0,
				-0.21046587824821472,
				0,
				0.9776012897491455
			],
			"scale":[
				0.6499999761581421,
				0.8999999761581421,
				0.05000000074505806
			],
			"translation":[
				1.6848773956298828,
				6.511519432067871,
				19.37548828125
			]
		},
		{
			"mesh":13,
			"name":"Moving Platform Sign.02",
			"rotation":[
				0,
				-0.1272519826889038,
				0,
				0.9918704628944397
			],
			"scale":[
				0.6499999761581421,
				0.8999999761581421,
				0.05000000074505806
			],
			"translation":[
				4.031429290771484,
				7.3338093757629395,
				12.609375
			]
		}
	],
	"materials":[
		{
			"doubleSided":true,
			"name":"Material.001",
			"pbrMetallicRoughness":{
				"baseColorTexture":{
					"index":0
				},
				"metallicFactor":0,
				"roughnessFactor":0.5
			}
		},
		{
			"doubleSided":true,
			"name":"Material.003",
			"pbrMetallicRoughness":{
				"baseColorTexture":{
					"index":1
				},
				"metallicFactor":0,
				"roughnessFactor":0.5
			}
		},
		{
			"doubleSided":true,
			"name":"Material",
			"pbrMetallicRoughness":{
				"baseColorTexture":{
					"index":2
				},
				"metallicFactor":0,
				"roughnessFactor":0.5
			}
		},
		{
			"doubleSided":true,
			"name":"Material.002",
			"pbrMetallicRoughness":{
				"baseColorTexture":{
					"index":3
				},
				"metallicFactor":0,
				"roughnessFactor":0.5
			}
		},
		{
			"doubleSided":true,
			"name":"Material.012",
			"pbrMetallicRoughness":{
				"baseColorTexture":{
					"index":4
				},
				"metallicFactor":0,
				"roughnessFactor":0.5
			}
		}
	],
	"meshes":[
		{
			"name":"Cube.009",
			"primitives":[
				{
					"attributes":{
						"POSITION":0,
						"NORMAL":1,
						"TEXCOORD_0":2
					},
					"indices":3,
					"material":0
				}
			]
		},
		{
			"name":"Cube.010",
			"primitives":[
				{
					"attributes":{
						"POSITION":4,
						"NORMAL":5,
						"TEXCOORD_0":6
					},
					"indices":7,
					"material":0
				}
			]
		},
		{
			"name":"Cube.011",
			"primitives":[
				{
					"attributes":{
						"POSITION":8,
						"NORMAL":9,
						"TEXCOORD_0":10
					},
					"indices":11,
					"material":0
				}
			]
		},
		{
			"name":"Cube.013",
			"primitives":[
				{
					"attributes":{
						"POSITION":12,
						"NORMAL":13,
						"TEXCOORD_0":14
					},
					"indices":15,
					"material":0
				}
			]
		},
		{
			"name":"Cube.014",
			"primitives":[
				{
					"attributes":{
						"POSITION":16,
						"NORMAL":17,
						"TEXCOORD_0":18
					},
					"indices":19,
					"material":0
				}
			]
		},
		{
			"name":"Cube.016",
			"primitives":[
				{
					"attributes":{
						"POSITION":20,
						"NORMAL":21,
						"TEXCOORD_0":22
					},
					"indices":23,
					"material":0
				}
			]
		},
		{
			"name":"Cube.015",
			"primitives":[
				{
					"attributes":{
						"POSITION":24,
						"NORMAL":25,
						"TEXCOORD_0":26
					},
					"indices":27,
					"material":0
				}
			]
		},
		{
			"name":"Cube.017",
			"primitives":[
				{
					"attributes":{
						"POSITION":28,
						"NORMAL":29,
						"TEXCOORD_0":30
					},
					"indices":31,
					"material":1
				}
			]
		},
		{
			"name":"Cube.020",
			"primitives":[
				{
					"attributes":{
						"POSITION":32,
						"NORMAL":33,
						"TEXCOORD_0":34
					},
					"indices":35,
					"material":0
				}
			]
		},
		{
			"name":"Cube.021",
			"primitives":[
				{
					"attributes":{
						"POSITION":36,
						"NORMAL":37,
						"TEXCOORD_0":38
					},
					"indices":39,
					"material":0
				}
			]
		},
		{
			"name":"Cube.022",
			"primitives":[
				{
					"attributes":{
						"POSITION":40,
						"NORMAL":41,
						"TEXCOORD_0":42
					},
					"indices":43,
					"material":2
				}
			]
		},
		{
			"name":"Cube.023",
			"primitives":[
				{
					"attributes":{
						"POSITION":44,
						"NORMAL":45,
						"TEXCOORD_0":46
					},
					"indices":43,
					"material":3
				}
			]
		},
		{
			"name":"Cube.024",
			"primitives":[
				{
					"attributes":{
						"POSITION":47,
						"NORMAL":48,
						"TEXCOORD_0":49
					},
					"indices":43,
					"material":4
				}
			]
		},
		{
			"name":"Cube.025",
			"primitives":[
				{
					"attributes":{
						"POSITION":50,
						"NORMAL":51,
						"TEXCOORD_0":52
					},
					"indices":43,
					"material":4
				}
			]
		}
	],
	"textures":[
		{
			"sampler":0,
			"source":0
		},
		{
			"sampler":0,
			"source":1
		},
		{
			"sampler":0,
			"source":2
		},
		{
			"sampler":0,
			"source":3
		},
		{
			"sampler":0,
			"source":4
		}
	],
	"images":[
		{
			"mimeType":"image/png",
			"name":"ImphenziaPalette01.png",
			"uri":"ImphenziaPalette01.png.png"
		},
		{
			"mimeType":"image/png",
			"name":"exit",
			"uri":"exit.png"
		},
		{
			"mimeType":"image/png",
			"name":"14thstreet",
			"uri":"14thstreet.png"
		},
		{
			"mimeType":"image/png",
			"name":"union square",
			"uri":"union%20square.png"
		},
		{
			"mimeType":"image/png",
			"name":"moving platform sign",
			"uri":"moving%20platform%20sign.png"
		}
	],
	"accessors":[
		{
			"bufferView":0,
			"componentType":5126,
			"count":1200,
			"max":[
				1.0956203937530518,
				71.09473419189453,
				11.998173713684082
			],
			"min":[
				-1.8934319019317627,
				11.037247657775879,
				-8.124309539794922
			],
			"type":"VEC3"
		},
		{
			"bufferView":1,
			"componentType":5126,
			"count":1200,
			"type":"VEC3"
		},
		{
			"bufferView":2,
			"componentType":5126,
			"count":1200,
			"type":"VEC2"
		},
		{
			"bufferView":3,
			"componentType":5123,
			"count":1800,
			"type":"SCALAR"
		},
		{
			"bufferView":4,
			"componentType":5126,
			"count":3332,
			"max":[
				1.3215882778167725,
				1.079085111618042,
				23.14914894104004
			],
			"min":[
				-1.0489821434020996,
				-1.000004529953003,
				-23.017391204833984
			],
			"type":"VEC3"
		},
		{
			"bufferView":5,
			"componentType":5126,
			"count":3332,
			"type":"VEC3"
		},
		{
			"bufferView":6,
			"componentType":5126,
			"count":3332,
			"type":"VEC2"
		},
		{
			"bufferView":7,
			"componentType":5123,
			"count":6624,
			"type":"SCALAR"
		},
		{
			"bufferView":8,
			"componentType":5126,
			"count":96,
			"max":[
				5.452686309814453,
				1,
				41.582759857177734
			],
			"min":[
				-2.525299072265625,
				-1.0000005960464478,
				-1.6174876689910889
			],
			"type":"VEC3"
		},
		{
			"bufferView":9,
			"componentType":5126,
			"count":96,
			"type":"VEC3"
		},
		{
			"bufferView":10,
			"componentType":5126,
			"count":96,
			"type":"VEC2"
		},
		{
			"bufferView":11,
			"componentType":5123,
			"count":144,
			"type":"SCALAR"
		},
		{
			"bufferView":12,
			"componentType":5126,
			"count":48,
			"max":[
				3.8081111907958984,
				1.000000238418579,
				29.06437110900879
			],
			"min":[
				-1.4446306228637695,
				-1.000000238418579,
				14.79000473022461
			],
			"type":"VEC3"
		},
		{
			"bufferView":13,
			"componentType":5126,
			"count":48,
			"type":"VEC3"
		},
		{
			"bufferView":14,
			"componentType":5126,
			"count":48,
			"type":"VEC2"
		},
		{
			"bufferView":15,
			"componentType":5123,
			"count":72,
			"type":"SCALAR"
		},
		{
			"bufferView":16,
			"componentType":5126,
			"count":416,
			"max":[
				2.1577301025390625,
				1.0000299215316772,
				15.52688980102539
			],
			"min":[
				-0.980525016784668,
				-1.0000044107437134,
				-15.395129203796387
			],
			"type":"VEC3"
		},
		{
			"bufferView":17,
			"componentType":5126,
			"count":416,
			"type":"VEC3"
		},
		{
			"bufferView":18,
			"componentType":5126,
			"count":416,
			"type":"VEC2"
		},
		{
			"bufferView":19,
			"componentType":5123,
			"count":672,
			"type":"SCALAR"
		},
		{
			"bufferView":20,
			"componentType":5126,
			"count":1800,
			"max":[
				1.09563148021698,
				69.94570922851562,
				17.329727172851562
			],
			"min":[
				-1.8934329748153687,
				-8.563274383544922,
				-15.03106689453125
			],
			"type":"VEC3"
		},
		{
			"bufferView":21,
			"componentType":5126,
			"count":1800,
			"type":"VEC3"
		},
		{
			"bufferView":22,
			"componentType":5126,
			"count":1800,
			"type":"VEC2"
		},
		{
			"bufferView":23,
			"componentType":5123,
			"count":2700,
			"type":"SCALAR"
		},
		{
			"bufferView":24,
			"componentType":5126,
			"count":520,
			"max":[
				6.788524627685547,
				1.0000008344650269,
				16.031179428100586
			],
			"min":[
				-6.0220184326171875,
				-1.0000009536743164,
				-15.429191589355469
			],
			"type":"VEC3"
		},
		{
			"bufferView":25,
			"componentType":5126,
			"count":520,
			"type":"VEC3"
		},
		{
			"bufferView":26,
			"componentType":5126,
			"count":520,
			"type":"VEC2"
		},
		{
			"bufferView":27,
			"componentType":5123,
			"count":900,
			"type":"SCALAR"
		},
		{
			"bufferView":28,
			"componentType":5126,
			"count":76,
			"max":[
				1,
				1.9718172550201416,
				1
			],
			"min":[
				-1,
				-1,
				-1
			],
			"type":"VEC3"
		},
		{
			"bufferView":29,
			"componentType":5126,
			"count":76,
			"type":"VEC3"
		},
		{
			"bufferView":30,
			"componentType":5126,
			"count":76,
			"type":"VEC2"
		},
		{
			"bufferView":31,
			"componentType":5123,
			"count":114,
			"type":"SCALAR"
		},
		{
			"bufferView":32,
			"componentType":5126,
			"count":416,
			"max":[
				6.788664817810059,
				1.0000019073486328,
				13.736138343811035
			],
			"min":[
				-0.8400554656982422,
				-1.0000003576278687,
				-13.604378700256348
			],
			"type":"VEC3"
		},
		{
			"bufferView":33,
			"componentType":5126,
			"count":416,
			"type":"VEC3"
		},
		{
			"bufferView":34,
			"componentType":5126,
			"count":416,
			"type":"VEC2"
		},
		{
			"bufferView":35,
			"componentType":5123,
			"count":672,
			"type":"SCALAR"
		},
		{
			"bufferView":36,
			"componentType":5126,
			"count":416,
			"max":[
				2.1577157974243164,
				1.0000299215316772,
				24.943828582763672
			],
			"min":[
				-1.7911171913146973,
				-1.0000946521759033,
				-24.812068939208984
			],
			"type":"VEC3"
		},
		{
			"bufferView":37,
			"componentType":5126,
			"count":416,
			"type":"VEC3"
		},
		{
			"bufferView":38,
			"componentType":5126,
			"count":416,
			"type":"VEC2"
		},
		{
			"bufferView":39,
			"componentType":5123,
			"count":672,
			"type":"SCALAR"
		},
		{
			"bufferView":40,
			"componentType":5126,
			"count":24,
			"max":[
				1,
				1,
				1
			],
			"min":[
				-1,
				-1,
				-1
			],
			"type":"VEC3"
		},
		{
			"bufferView":41,
			"componentType":5126,
			"count":24,
			"type":"VEC3"
		},
		{
			"bufferView":42,
			"componentType":5126,
			"count":24,
			"type":"VEC2"
		},
		{
			"bufferView":43,
			"componentType":5123,
			"count":36,
			"type":"SCALAR"
		},
		{
			"bufferView":44,
			"componentType":5126,
			"count":24,
			"max":[
				1,
				1,
				1
			],
			"min":[
				-1,
				-1,
				-1
			],
			"type":"VEC3"
		},
		{
			"bufferView":45,
			"componentType":5126,
			"count":24,
			"type":"VEC3"
		},
		{
			"bufferView":46,
			"componentType":5126,
			"count":24,
			"type":"VEC2"
		},
		{
			"bufferView":47,
			"componentType":5126,
			"count":24,
			"max":[
				1,
				1,
				1
			],
			"min":[
				-1,
				-1,
				-1
			],
			"type":"VEC3"
		},
		{
			"bufferView":48,
			"componentType":5126,
			"count":24,
			"type":"VEC3"
		},
		{
			"bufferView":49,
			"componentType":5126,
			"count":24,
			"type":"VEC2"
		},
		{
			"bufferView":50,
			"componentType":5126,
			"count":24,
			"max":[
				1,
				1,
				1
			],
			"min":[
				-1,
				-1,
				-1
			],
			"type":"VEC3"
		},
		{
			"bufferView":51,
			"componentType":5126,
			"count":24,
			"type":"VEC3"
		},
		{
			"bufferView":52,
			"componentType":5126,
			"count":24,
			"type":"VEC2"
		}
	],
	"bufferViews":[
		{
			"buffer":0,
			"byteLength":14400,
			"byteOffset":0,
			"target":34962
		},
		{
			"buffer":0,
			"byteLength":14400,
			"byteOffset":14400,
			"target":34962
		},
		{
			"buffer":0,
			"byteLength":9600,
			"byteOffset":28800,
			"target":34962
		},
		{
			"buffer":0,
			"byteLength":3600,
			"byteOffset":38400,
			"target":34963
		},
		{
			"buffer":0,
			"byteLength":39984,
			"byteOffset":42000,
			"target":34962
		},
		{
			"buffer":0,
			"byteLength":39984,
			"byteOffset":81984,
			"target":34962
		},
		{
			"buffer":0,
			"byteLength":26656,
			"byteOffset":121968,
			"target":34962
		},
		{
			"buffer":0,
			"byteLength":13248,
			"byteOffset":148624,
			"target":34963
		},
		{
			"buffer":0,
			"byteLength":1152,
			"byteOffset":161872,
			"target":34962
		},
		{
			"buffer":0,
			"byteLength":1152,
			"byteOffset":163024,
			"target":34962
		},
		{
			"buffer":0,
			"byteLength":768,
			"byteOffset":164176,
			"target":34962
		},
		{
			"buffer":0,
			"byteLength":288,
			"byteOffset":164944,
			"target":34963
		},
		{
			"buffer":0,
			"byteLength":576,
			"byteOffset":165232,
			"target":34962
		},
		{
			"buffer":0,
			"byteLength":576,
			"byteOffset":165808,
			"target":34962
		},
		{
			"buffer":0,
			"byteLength":384,
			"byteOffset":166384,
			"target":34962
		},
		{
			"buffer":0,
			"byteLength":144,
			"byteOffset":166768,
			"target":34963
		},
		{
			"buffer":0,
			"byteLength":4992,
			"byteOffset":166912,
			"target":34962
		},
		{
			"buffer":0,
			"byteLength":4992,
			"byteOffset":171904,
			"target":34962
		},
		{
			"buffer":0,
			"byteLength":3328,
			"byteOffset":176896,
			"target":34962
		},
		{
			"buffer":0,
			"byteLength":1344,
			"byteOffset":180224,
			"target":34963
		},
		{
			"buffer":0,
			"byteLength":21600,
			"byteOffset":181568,
			"target":34962
		},
		{
			"buffer":0,
			"byteLength":21600,
			"byteOffset":203168,
			"target":34962
		},
		{
			"buffer":0,
			"byteLength":14400,
			"byteOffset":224768,
			"target":34962
		},
		{
			"buffer":0,
			"byteLength":5400,
			"byteOffset":239168,
			"target":34963
		},
		{
			"buffer":0,
			"byteLength":6240,
			"byteOffset":244568,
			"target":34962
		},
		{
			"buffer":0,
			"byteLength":6240,
			"byteOffset":250808,
			"target":34962
		},
		{
			"buffer":0,
			"byteLength":4160,
			"byteOffset":257048,
			"target":34962
		},
		{
			"buffer":0,
			"byteLength":1800,
			"byteOffset":261208,
			"target":34963
		},
		{
			"buffer":0,
			"byteLength":912,
			"byteOffset":263008,
			"target":34962
		},
		{
			"buffer":0,
			"byteLength":912,
			"byteOffset":263920,
			"target":34962
		},
		{
			"buffer":0,
			"byteLength":608,
			"byteOffset":264832,
			"target":34962
		},
		{
			"buffer":0,
			"byteLength":228,
			"byteOffset":265440,
			"target":34963
		},
		{
			"buffer":0,
			"byteLength":4992,
			"byteOffset":265668,
			"target":34962
		},
		{
			"buffer":0,
			"byteLength":4992,
			"byteOffset":270660,
			"target":34962
		},
		{
			"buffer":0,
			"byteLength":3328,
			"byteOffset":275652,
			"target":34962
		},
		{
			"buffer":0,
			"byteLength":1344,
			"byteOffset":278980,
			"target":34963
		},
		{
			"buffer":0,
			"byteLength":4992,
			"byteOffset":280324,
			"target":34962
		},
		{
			"buffer":0,
			"byteLength":4992,
			"byteOffset":285316,
			"target":34962
		},
		{
			"buffer":0,
			"byteLength":3328,
			"byteOffset":290308,
			"target":34962
		},
		{
			"buffer":0,
			"byteLength":1344,
			"byteOffset":293636,
			"target":34963
		},
		{
			"buffer":0,
			"byteLength":288,
			"byteOffset":294980,
			"target":34962
		},
		{
			"buffer":0,
			"byteLength":288,
			"byteOffset":295268,
			"target":34962
		},
		{
			"buffer":0,
			"byteLength":192,
			"byteOffset":295556,
			"target":34962
		},
		{
			"buffer":0,
			"byteLength":72,
			"byteOffset":295748,
			"target":34963
		},
		{
			"buffer":0,
			"byteLength":288,
			"byteOffset":295820,
			"target":34962
		},
		{
			"buffer":0,
			"byteLength":288,
			"byteOffset":296108,
			"target":34962
		},
		{
			"buffer":0,
			"byteLength":192,
			"byteOffset":296396,
			"target":34962
		},
		{
			"buffer":0,
			"byteLength":288,
			"byteOffset":296588,
			"target":34962
		},
		{
			"buffer":0,
			"byteLength":288,
			"byteOffset":296876,
			"target":34962
		},
		{
			"buffer":0,
			"byteLength":192,
			"byteOffset":297164,
			"target":34962
		},
		{
			"buffer":0,
			"byteLength":288,
			"byteOffset":297356,
			"target":34962
		},
		{
			"buffer":0,
			"byteLength":288,
			"byteOffset":297644,
			"target":34962
		},
		{
			"buffer":0,
			"byteLength":192,
			"byteOffset":297932,
			"target":34962
		}
	],
	"samplers":[
		{
			"magFilter":9729,
			"minFilter":9987
		}
	],
	"buffers":[
		{
			"byteLength":298124,
			"uri":"station.bin"
		}
	]
}
