{
	"asset":{
		"generator":"Khronos glTF Blender I/O v4.5.48",
		"version":"2.0"
	},
	"scene":0,
	"scenes":[
		{
			"name":"Scene",
			"nodes":[
				23
			]
		}
	],
	"nodes":[
		{
			"mesh":0,
			"name":"Rodney",
			"scale":[
				0.8219760656356812,
				0.8219760656356812,
				0.8219760656356812
			],
			"translation":[
				0,
				-3.46809720993042,
				0
			]
		},
		{
			"name":"Head",
			"translation":[
				0,
				1.7021689414978027,
				0
			]
		},
		{
			"name":"Hand.L",
			"rotation":[
				-0.0015041304286569357,
				-0.00022562700905837119,
				-0.0066505782306194305,
				0.9999767541885376
			],
			"scale":[
				0.9999999403953552,
				0.9999999403953552,
				0.9999999403953552
			],
			"translation":[
				4.5258275349624455e-07,
				1.3228116035461426,
				-9.080395102500916e-09
			]
		},
		{
			"children":[
				2
			],
			"name":"LowerArm.L",
			"rotation":[
				0.031649935990571976,
				7.046681275824085e-05,
				0.018713606521487236,
				0.9993237853050232
			],
			"scale":[
				1.0000001192092896,
				1.0000001192092896,
				0.9999999403953552
			],
			"translation":[
				5.657483939103258e-07,
				1.9460002183914185,
				9.313225746154785e-09
			]
		},
		{
			"children":[
				3
			],
			"name":"UpperArm.L",
			"rotation":[
				-0.008371342904865742,
				-0.004708353895694017,
				0.2444896548986435,
				0.9696043729782104
			],
			"scale":[
				0.9999998807907104,
				0.9999998807907104,
				0.9999998211860657
			],
			"translation":[
				3.622832309702062e-07,
				1.539277195930481,
				3.725290298461914e-09
			]
		},
		{
			"children":[
				4
			],
			"name":"Shoulder.L",
			"rotation":[
				-0.002667785855010152,
				0.004592358134686947,
				-0.8646606206893921,
				0.5023283958435059
			],
			"scale":[
				1.000000238418579,
				1,
				1
			],
			"translation":[
				0,
				1.7021689414978027,
				0
			]
		},
		{
			"name":"Hand.R",
			"rotation":[
				-0.0015041304286569357,
				0.00022562700905837119,
				0.0066505782306194305,
				0.9999767541885376
			],
			"scale":[
				0.9999999403953552,
				0.9999999403953552,
				0.9999999403953552
			],
			"translation":[
				-4.5258275349624455e-07,
				1.3228116035461426,
				-9.080395102500916e-09
			]
		},
		{
			"children":[
				6
			],
			"name":"LowerArm.R",
			"rotation":[
				0.031649935990571976,
				-7.046681275824085e-05,
				-0.018713606521487236,
				0.9993237853050232
			],
			"scale":[
				1.0000001192092896,
				1.0000001192092896,
				0.9999999403953552
			],
			"translation":[
				-5.657483939103258e-07,
				1.9460002183914185,
				9.313225746154785e-09
			]
		},
		{
			"children":[
				7
			],
			"name":"UpperArm.R",
			"rotation":[
				-0.008371342904865742,
				0.004708353895694017,
				-0.2444896548986435,
				0.9696043729782104
			],
			"scale":[
				0.9999998807907104,
				0.9999998807907104,
				0.9999998211860657
			],
			"translation":[
				-3.622832309702062e-07,
				1.539277195930481,
				3.725290298461914e-09
			]
		},
		{
			"children":[
				8
			],
			"name":"Shoulder.R",
			"rotation":[
				-0.002667785855010152,
				-0.004592358134686947,
				0.8646606206893921,
				0.5023283958435059
			],
			"scale":[
				1.000000238418579,
				1,
				1
			],
			"translation":[
				0,
				1.7021689414978027,
				0
			]
		},
		{
			"children":[
				1,
				5,
				9
			],
			"name":"Spine2",
			"translation":[
				0,
				1.4683547019958496,
				0
			]
		},
		{
			"children":[
				10
			],
			"name":"Spine1",
			"translation":[
				0,
				1.000000238418579,
				0
			]
		},
		{
			"name":"Foot.L",
			"rotation":[
				0.609262228012085,
				0.002799528418108821,
				0.004234026651829481,
				0.7929525971412659
			],
			"scale":[
				0.9999998807907104,
				1.0000001192092896,
				0.9999999403953552
			],
			"translation":[
				-8.894136982462442e-08,
				1.3899427652359009,
				6.241691608011024e-10
			]
		},
		{
			"children":[
				12
			],
			"name":"LowerLeg.L",
			"rotation":[
				-0.062156930565834045,
				3.0411949410336092e-05,
				-0.0034834733232855797,
				0.9980602860450745
			],
			"scale":[
				1,
				1,
				1.0000001192092896
			],
			"translation":[
				8.375782556413469e-08,
				1.8441051244735718,
				-6.024492904543877e-09
			]
		},
		{
			"children":[
				13
			],
			"name":"UpperLeg.L",
			"rotation":[
				4.251139398547821e-05,
				0.026722747832536697,
				0.9996416568756104,
				0.0015917705604806542
			],
			"scale":[
				1,
				0.9999996423721313,
				1.0000020265579224
			],
			"translation":[
				0.7623887658119202,
				0.15247797966003418,
				-1.6546975345477222e-08
			]
		},
		{
			"name":"Foot.R",
			"rotation":[
				0.609262228012085,
				-0.002799528418108821,
				-0.004234026651829481,
				0.7929525971412659
			],
			"scale":[
				0.9999998807907104,
				1.0000001192092896,
				0.9999999403953552
			],
			"translation":[
				8.894136982462442e-08,
				1.3899427652359009,
				6.241691608011024e-10
			]
		},
		{
			"children":[
				15
			],
			"name":"LowerLeg.R",
			"rotation":[
				-0.062156930565834045,
				-3.0411949410336092e-05,
				0.0034834733232855797,
				0.9980602860450745
			],
			"scale":[
				1,
				1,
				1.0000001192092896
			],
			"translation":[
				-8.375782556413469e-08,
				1.8441051244735718,
				-6.024492904543877e-09
			]
		},
		{
			"children":[
				16
			],
			"name":"UpperLeg.R",
			"rotation":[
				4.251139398547821e-05,
				-0.026722747832536697,
				-0.9996416568756104,
				0.0015917705604806542
			],
			"scale":[
				1,
				0.9999996423721313,
				1.0000020265579224
			],
			"translation":[
				-0.7623887658119202,
				0.15247797966003418,
				-1.6546975345477222e-08
			]
		},
		{
			"children":[
				11,
				14,
				17
			],
			"name":"Root"
		},
		{
			"name":"IKLegPole.L",
			"rotation":[
				0.0011083356803283095,
				0.694814920425415,
				0.7191869616508484,
				0.0010707761393859982
			],
			"scale":[
				0.9999999403953552,
				1.000000238418579,
				1.0000003576278687
			],
			"translation":[
				0.7565242052078247,
				-1.4117205142974854,
				1.4264717102050781
			]
		},
		{
			"name":"IKTarget.L",
			"rotation":[
				-0.0035627668257802725,
				-0.7010807991027832,
				0.7130643129348755,
				0.003502892330288887
			],
			"scale":[
				0.9999999403953552,
				0.9999997615814209,
				1
			],
			"translation":[
				0.7424494028091431,
				-3.0753588676452637,
				-3.8168366245372454e-07
			]
		},
		{
			"name":"IKLegPole.R",
			"rotation":[
				0.0011083356803283095,
				-0.694814920425415,
				-0.7191869616508484,
				0.0010707761393859982
			],
			"scale":[
				0.9999999403953552,
				1.000000238418579,
				1.0000003576278687
			],
			"translation":[
				-0.7565242052078247,
				-1.4117205142974854,
				1.4264717102050781
			]
		},
		{
			"name":"IKTarget.R",
			"rotation":[
				-0.0035627668257802725,
				0.7010807991027832,
				-0.7130643129348755,
				0.003502892330288887
			],
			"scale":[
				0.9999999403953552,
				0.9999997615814209,
				1
			],
			"translation":[
				-0.7424494028091431,
				-3.0753588676452637,
				-3.8168366245372454e-07
			]
		},
		{
			"children":[
				0,
				18,
				19,
				20,
				21,
				22
			],
			"name":"Armature",
			"scale":[
				1.2165803909301758,
				1.2165803909301758,
				1.2165803909301758
			],
			"translation":[
				0,
				4.219219207763672,
				0
			]
		}
	],
	"materials":[
		{
			"doubleSided":true,
			"name":"Material",
			"pbrMetallicRoughness":{
				"baseColorTexture":{
					"index":0
				},
				"metallicFactor":0,
				"roughnessFactor":0.5
			}
		}
	],
	"meshes":[
		{
			"name":"Cube",
			"primitives":[
				{
					"attributes":{
						"POSITION":0,
						"NORMAL":1,
						"TEXCOORD_0":2,
						"COLOR_0":3,
						"COLOR_1":4
					},
					"indices":5,
					"material":0
				}
			]
		}
	],
	"textures":[
		{
			"sampler":0,
			"source":0
		}
	],
	"images":[
		{
			"mimeType":"image/png",
			"name":"ImphenziaPalette01",
			"uri":"ImphenziaPalette01.png"
		}
	],
	"skins":[
		{
			"inverseBindMatrices":6,
			"joints":[
				18,
				11,
				10,
				1,
				5,
				4,
				3,
				2,
				9,
				8,
				7,
				6,
				14,
				13,
				12,
				17,
				16,
				15,
				19,
				20,
				21,
				22
			],
			"name":"Armature"
		}
	],
	"accessors":[
		{
			"bufferView":0,
			"componentType":5126,
			"count":1406,
			"max":[
				4.250486373901367,
				13.357312202453613,
				1.749991774559021
			],
			"min":[
				-2.913545846939087,
				-0.026525020599365234,
				-1.5497151613235474
			],
			"type":"VEC3"
		},
		{
			"bufferView":1,
			"componentType":5126,
			"count":1406,
			"type":"VEC3"
		},
		{
			"bufferView":2,
			"componentType":5126,
			"count":1406,
			"type":"VEC2"
		},
		{
			"bufferView":3,
			"componentType":5121,
			"count":1406,
			"normalized":true,
			"type":"VEC4"
		},
		{
			"bufferView":4,
			"componentType":5123,
			"count":1406,
			"normalized":true,
			"type":"VEC4"
		},
		{
			"bufferView":5,
			"componentType":5123,
			"count":2232,
			"type":"SCALAR"
		},
		{
			"bufferView":6,
			"componentType":5126,
			"count":22,
			"type":"MAT4"
		}
	],
	"bufferViews":[
		{
			"buffer":0,
			"byteLength":16872,
			"byteOffset":0,
			"target":34962
		},
		{
			"buffer":0,
			"byteLength":16872,
			"byteOffset":16872,
			"target":34962
		},
		{
			"buffer":0,
			"byteLength":11248,
			"byteOffset":33744,
			"target":34962
		},
		{
			"buffer":0,
			"byteLength":5624,
			"byteOffset":44992,
			"target":34962
		},
		{
			"buffer":0,
			"byteLength":11248,
			"byteOffset":50616,
			"target":34962
		},
		{
			"buffer":0,
			"byteLength":4464,
			"byteOffset":61864,
			"target":34963
		},
		{
			"buffer":0,
			"byteLength":1408,
			"byteOffset":66328
		}
	],
	"samplers":[
		{
			"magFilter":9728,
			"minFilter":9984
		}
	],
	"buffers":[
		{
			"byteLength":67736,
			"uri":"rodney3d_wave.bin"
		}
	]
}
